<svg width="1440" height="1024" viewBox="0 0 1440 1024" fill="none" xmlns="http://www.w3.org/2000/svg">
  <rect width="1440" height="1024" fill="black" />
  <path
    d="M83.6195 613.737L81.6013 618.312L86.0119 620.257L88.1174 615.921L83.6195 613.737ZM64.6475 605.367L60.1487 603.185L57.8866 607.849L62.6293 609.942L64.6475 605.367ZM184.06 359.149L186.269 354.664L181.756 352.441L179.561 356.968L184.06 359.149ZM202.753 368.356L207.25 370.54L209.422 366.068L204.962 363.871L202.753 368.356ZM85.6377 609.162L66.6657 600.792L62.6293 609.942L81.6013 618.312L85.6377 609.162ZM69.1463 607.549L188.558 361.331L179.561 356.968L60.1487 603.185L69.1463 607.549ZM181.85 363.635L200.543 372.842L204.962 363.871L186.269 354.664L181.85 363.635ZM198.255 366.173L79.1216 611.553L88.1174 615.921L207.25 370.54L198.255 366.173ZM333.216 376.029L333.836 371.068L328.216 370.365V376.029H333.216ZM356.652 378.958H361.652V374.545L357.272 373.997L356.652 378.958ZM356.652 585V590H361.652V585H356.652ZM336.145 585L331.178 585.572L331.688 590H336.145V585ZM333.913 565.609L338.88 565.038L337.377 551.979L329.821 562.736L333.913 565.609ZM314.941 582.768L312.682 578.307L312.67 578.313L312.658 578.32L314.941 582.768ZM260.676 578.583L263.739 574.631L260.676 578.583ZM242.262 551.799L237.537 553.437L237.542 553.449L242.262 551.799ZM243.099 472.423L247.749 474.261L247.754 474.248L243.099 472.423ZM262.768 445.081L265.823 449.04L265.829 449.035L262.768 445.081ZM316.197 439.501L314.093 444.037L314.12 444.05L314.147 444.062L316.197 439.501ZM333.216 452.335L329.441 455.615L338.216 465.714V452.335H333.216ZM271.696 468.238L275.813 471.076L271.696 468.238ZM265.837 543.568L270.606 542.065L265.837 543.568ZM277.695 562.82L274.521 566.683L274.538 566.697L274.554 566.71L277.695 562.82ZM318.429 562.122L315.312 558.212L315.297 558.224L315.283 558.236L318.429 562.122ZM333.216 546.079L337.396 548.823L338.216 547.574V546.079H333.216ZM333.216 472.702H338.216V471.179L337.366 469.914L333.216 472.702ZM318.708 458.892L316.166 463.198L316.193 463.214L316.219 463.229L318.708 458.892ZM332.595 380.99L356.031 383.92L357.272 373.997L333.836 371.068L332.595 380.99ZM351.652 378.958V585H361.652V378.958H351.652ZM356.652 580H336.145V590H356.652V580ZM341.112 584.428L338.88 565.038L328.946 566.181L331.178 585.572L341.112 584.428ZM329.821 562.736C324.717 570.003 318.984 575.115 312.682 578.307L317.2 587.228C325.22 583.167 332.135 576.84 338.005 568.483L329.821 562.736ZM312.658 578.32C306.31 581.577 299.515 583.208 292.203 583.208V593.208C301.072 593.208 309.436 591.213 317.224 587.216L312.658 578.32ZM292.203 583.208C280.324 583.208 270.962 580.232 263.739 574.631L257.612 582.535C266.943 589.768 278.599 593.208 292.203 593.208V583.208ZM263.739 574.631C256.339 568.894 250.713 560.823 246.981 550.149L237.542 553.449C241.808 565.653 248.458 575.438 257.612 582.535L263.739 574.631ZM246.986 550.161C243.207 539.266 241.263 526.493 241.263 511.762H231.263C231.263 527.35 233.318 541.268 237.537 553.437L246.986 550.161ZM241.263 511.762C241.263 497.584 243.461 485.111 247.749 474.261L238.448 470.586C233.622 482.8 231.263 496.553 231.263 511.762H241.263ZM247.754 474.248C252.032 463.333 258.089 455.008 265.823 449.04L259.713 441.123C250.335 448.361 243.279 458.264 238.443 470.599L247.754 474.248ZM265.829 449.035C273.509 443.089 282.771 440.037 293.877 440.037V430.037C280.802 430.037 269.325 433.682 259.707 441.128L265.829 449.035ZM293.877 440.037C301.754 440.037 308.452 441.421 314.093 444.037L318.3 434.966C311.107 431.63 302.925 430.037 293.877 430.037V440.037ZM314.147 444.062C319.859 446.628 324.954 450.451 329.441 455.615L336.99 449.056C331.619 442.874 325.368 438.141 318.246 434.941L314.147 444.062ZM338.216 452.335V376.029H328.216V452.335H338.216ZM300.015 448.87C286.202 448.87 275.175 454.382 267.579 465.401L275.813 471.076C281.423 462.937 289.275 458.87 300.015 458.87V448.87ZM267.579 465.401C260.131 476.206 256.792 491.924 256.792 511.762H266.792C266.792 492.727 270.055 479.429 275.813 471.076L267.579 465.401ZM256.792 511.762C256.792 524.729 258.169 535.875 261.068 545.072L270.606 542.065C268.111 534.15 266.792 524.092 266.792 511.762H256.792ZM261.068 545.072C263.962 554.253 268.353 561.617 274.521 566.683L280.868 558.956C276.62 555.466 273.106 549.996 270.606 542.065L261.068 545.072ZM274.554 566.71C280.851 571.792 288.461 574.237 297.085 574.237V564.236C290.457 564.236 285.14 562.403 280.835 558.929L274.554 566.71ZM297.085 574.237C306.466 574.237 314.726 571.552 321.575 566.008L315.283 558.236C310.413 562.178 304.444 564.236 297.085 564.236V574.237ZM321.545 566.032C327.882 560.982 333.18 555.247 337.396 548.823L329.035 543.336C325.439 548.816 320.879 553.776 315.312 558.212L321.545 566.032ZM338.216 546.079V472.702H328.216V546.079H338.216ZM337.366 469.914C332.981 463.388 327.596 458.228 321.196 454.555L316.219 463.229C321.165 466.066 325.452 470.113 329.065 475.491L337.366 469.914ZM321.249 454.586C314.782 450.769 307.669 448.87 300.015 448.87V458.87C305.938 458.87 311.287 460.319 316.166 463.198L321.249 454.586ZM431.036 519.854V514.854H425.826L426.04 520.058L431.036 519.854ZM437.592 547.753L433.19 550.124L433.196 550.136L433.203 550.148L437.592 547.753ZM453.077 563.656L450.714 568.063L450.739 568.076L450.764 568.089L453.077 563.656ZM494.369 565.331L492.66 560.632L492.648 560.636L492.637 560.64L494.369 565.331ZM513.201 555.426L517.275 552.527L514.434 548.536L510.386 551.294L513.201 555.426ZM524.222 570.91L527.306 574.846L531.063 571.901L528.295 568.011L524.222 570.91ZM500.646 583.605L499.005 578.882L498.998 578.885L498.99 578.887L500.646 583.605ZM437.313 578.583L440.005 574.37L437.313 578.583ZM414.296 551.799L409.739 553.857L409.749 553.879L409.759 553.901L414.296 551.799ZM414.435 472.145L418.978 474.233L414.435 472.145ZM436.755 444.942L433.917 440.825L436.755 444.942ZM502.599 443.826L499.856 448.006L499.871 448.016L499.886 448.026L502.599 443.826ZM523.106 468.657L518.528 470.669L518.539 470.693L518.55 470.717L523.106 468.657ZM530.22 514.134L535.215 514.351L535.216 514.342L530.22 514.134ZM529.802 519.854V524.854H534.277L534.771 520.406L529.802 519.854ZM443.591 465.867L439.969 462.42L439.958 462.431L439.947 462.443L443.591 465.867ZM431.175 501.719L426.185 501.403L425.849 506.719H431.175V501.719ZM507.761 501.719V506.719H512.85L512.76 501.63L507.761 501.719ZM497.438 466.285L493.582 469.469L493.591 469.48L493.6 469.491L497.438 466.285ZM426.04 520.058C426.525 531.892 428.815 541.999 433.19 550.124L441.994 545.383C438.557 539 436.476 530.507 436.031 519.649L426.04 520.058ZM433.203 550.148C437.516 558.056 443.339 564.109 450.714 568.063L455.439 559.25C449.98 556.322 445.48 551.773 441.982 545.359L433.203 550.148ZM450.764 568.089C457.924 571.825 465.697 573.678 474.002 573.678V563.678C467.24 563.678 461.063 562.184 455.389 559.224L450.764 568.089ZM474.002 573.678C482.028 573.678 489.416 572.489 496.1 570.021L492.637 560.64C487.231 562.636 481.041 563.678 474.002 563.678V573.678ZM496.077 570.029C502.671 567.632 509.318 564.121 516.016 559.558L510.386 551.294C504.25 555.473 498.342 558.565 492.66 560.632L496.077 570.029ZM509.127 558.325L520.148 573.81L528.295 568.011L517.275 552.527L509.127 558.325ZM521.137 566.975C514.719 572.006 507.355 575.981 499.005 578.882L502.287 588.328C511.607 585.091 519.96 580.603 527.306 574.846L521.137 566.975ZM498.99 578.887C490.777 581.771 482.362 583.208 473.723 583.208V593.208C483.497 593.208 493.031 591.577 502.302 588.323L498.99 578.887ZM473.723 583.208C460.26 583.208 449.101 580.181 440.005 574.37L434.621 582.796C445.613 589.819 458.727 593.208 473.723 593.208V583.208ZM440.005 574.37C430.812 568.496 423.756 560.323 418.832 549.697L409.759 553.901C415.437 566.153 423.726 575.836 434.621 582.796L440.005 574.37ZM418.852 549.741C413.988 538.971 411.484 526.35 411.484 511.762H401.484C401.484 527.493 404.187 541.563 409.739 553.857L418.852 549.741ZM411.484 511.762C411.484 497.48 414.026 485.006 418.978 474.233L409.892 470.056C404.242 482.347 401.484 496.285 401.484 511.762H411.484ZM418.978 474.233C423.939 463.441 430.821 455.105 439.593 449.059L433.917 440.825C423.531 447.985 415.533 457.784 409.892 470.056L418.978 474.233ZM439.593 449.059C448.24 443.098 458.522 440.037 470.654 440.037V430.037C456.746 430.037 444.429 433.58 433.917 440.825L439.593 449.059ZM470.654 440.037C482.206 440.037 491.866 442.763 499.856 448.006L505.342 439.646C495.477 433.171 483.839 430.037 470.654 430.037V440.037ZM499.886 448.026C507.904 453.204 514.135 460.676 518.528 470.669L527.683 466.645C522.59 455.062 515.15 445.98 505.312 439.626L499.886 448.026ZM518.55 470.717C523.026 480.616 525.36 492.666 525.36 507.02H535.36C535.36 491.613 532.857 478.088 527.661 466.597L518.55 470.717ZM525.36 507.02C525.36 509.469 525.314 511.771 525.224 513.926L535.216 514.342C535.312 512.033 535.36 509.592 535.36 507.02H525.36ZM525.225 513.917C525.135 515.972 525.003 517.764 524.832 519.301L534.771 520.406C534.972 518.595 535.119 516.574 535.215 514.351L525.225 513.917ZM529.802 514.854H431.036V524.854H529.802V514.854ZM470.933 449.288C458.715 449.288 448.282 453.686 439.969 462.42L447.212 469.314C453.593 462.61 461.388 459.288 470.933 459.288V449.288ZM439.947 462.443C431.569 471.358 427.244 484.648 426.185 501.403L436.165 502.034C437.152 486.425 441.104 475.814 447.234 469.291L439.947 462.443ZM431.175 506.719H507.761V496.719H431.175V506.719ZM512.76 501.63C512.471 485.343 508.907 472.217 501.275 463.08L493.6 469.491C499.174 476.164 502.492 486.66 502.761 501.807L512.76 501.63ZM501.293 463.102C493.67 453.868 483.377 449.288 470.933 449.288V459.288C480.622 459.288 487.999 462.707 493.582 469.469L501.293 463.102ZM702.394 438.106L707.092 439.816L709.533 433.106H702.394V438.106ZM648.965 585V590H652.467L653.664 586.709L648.965 585ZM621.763 585L617.059 586.697L618.251 590H621.763V585ZM568.753 438.106V433.106H561.633L564.049 439.804L568.753 438.106ZM593.584 438.106L598.319 436.502L597.168 433.106H593.584V438.106ZM636.131 563.656L631.396 565.261L636.162 579.327L640.873 565.242L636.131 563.656ZM678.121 438.106V433.106H674.521L673.379 436.521L678.121 438.106ZM697.695 436.397L644.266 583.291L653.664 586.709L707.092 439.816L697.695 436.397ZM648.965 580H621.763V590H648.965V580ZM626.466 583.303L573.456 436.409L564.049 439.804L617.059 586.697L626.466 583.303ZM568.753 443.106H593.584V433.106H568.753V443.106ZM588.848 439.711L631.396 565.261L640.867 562.052L598.319 436.502L588.848 439.711ZM640.873 565.242L682.862 439.692L673.379 436.521L631.389 562.071L640.873 565.242ZM678.121 443.106H702.394V433.106H678.121V443.106ZM752.784 613.737L750.765 618.312L755.176 620.257L757.281 615.921L752.784 613.737ZM733.812 605.367L729.313 603.185L727.051 607.849L731.793 609.942L733.812 605.367ZM853.224 359.149L855.433 354.664L850.92 352.441L848.725 356.968L853.224 359.149ZM871.917 368.356L876.414 370.54L878.586 366.068L874.126 363.871L871.917 368.356ZM754.802 609.162L735.83 600.792L731.793 609.942L750.765 618.312L754.802 609.162ZM738.31 607.549L857.722 361.331L848.725 356.968L729.313 603.185L738.31 607.549ZM851.014 363.635L869.707 372.842L874.126 363.871L855.433 354.664L851.014 363.635ZM867.419 366.173L748.286 611.553L757.281 615.921L876.414 370.54L867.419 366.173ZM1031.12 577.607L1033.89 581.767L1037.77 579.18L1035.46 575.13L1031.12 577.607ZM1012.84 585.418L1011.59 580.579L1012.84 585.418ZM942.395 456.242H947.395V451.242H942.395V456.242ZM908.636 456.242H903.636V461.242H908.636V456.242ZM908.636 438.106V433.106H903.636V438.106H908.636ZM942.395 438.106V443.106H947.395V438.106H942.395ZM942.395 404.766L941.804 399.801L937.395 400.326V404.766H942.395ZM965.831 401.976H970.831V396.345L965.24 397.011L965.831 401.976ZM965.831 438.106H960.831V443.106H965.831V438.106ZM1016.61 438.106L1021.55 438.867L1022.44 433.106H1016.61V438.106ZM1013.82 456.242V461.242H1018.11L1018.76 457.002L1013.82 456.242ZM965.831 456.242V451.242H960.831V456.242H965.831ZM972.248 562.262L968.712 565.797L968.731 565.816L968.75 565.835L972.248 562.262ZM1009.08 566.725L1010.42 571.54L1009.08 566.725ZM1022.05 561.703L1026.39 559.227L1024.03 555.076L1019.77 557.252L1022.05 561.703ZM1028.34 573.446C1023.88 576.424 1018.32 578.829 1011.59 580.579L1014.1 590.258C1021.68 588.288 1028.31 585.485 1033.89 581.767L1028.34 573.446ZM1011.59 580.579C1004.8 582.34 998.205 583.208 991.778 583.208V593.208C999.114 593.208 1006.56 592.217 1014.1 590.258L1011.59 580.579ZM991.778 583.208C976.827 583.208 966.055 579.31 958.705 572.199L951.752 579.387C961.514 588.83 975.108 593.208 991.778 593.208V583.208ZM958.705 572.199C951.219 564.958 947.395 555.653 947.395 543.848H937.395C937.395 558.082 942.126 570.074 951.752 579.387L958.705 572.199ZM947.395 543.848V456.242H937.395V543.848H947.395ZM942.395 451.242H908.636V461.242H942.395V451.242ZM913.636 456.242V438.106H903.636V456.242H913.636ZM908.636 443.106H942.395V433.106H908.636V443.106ZM947.395 438.106V404.766H937.395V438.106H947.395ZM942.986 409.731L966.422 406.941L965.24 397.011L941.804 399.801L942.986 409.731ZM960.831 401.976V438.106H970.831V401.976H960.831ZM965.831 443.106H1016.61V433.106H965.831V443.106ZM1011.67 437.346L1008.88 455.481L1018.76 457.002L1021.55 438.867L1011.67 437.346ZM1013.82 451.242H965.831V461.242H1013.82V451.242ZM960.831 456.242V543.568H970.831V456.242H960.831ZM960.831 543.568C960.831 552.598 963.204 560.289 968.712 565.797L975.783 558.726C972.735 555.678 970.831 550.907 970.831 543.568H960.831ZM968.75 565.835C974.502 571.464 983.315 573.678 993.87 573.678V563.678C984.337 563.678 978.735 561.615 975.745 558.688L968.75 565.835ZM993.87 573.678C999.752 573.678 1005.28 572.981 1010.42 571.54L1007.73 561.911C1003.57 563.074 998.962 563.678 993.87 563.678V573.678ZM1010.42 571.54C1015.37 570.155 1020.01 568.363 1024.33 566.155L1019.77 557.252C1016.09 559.136 1012.08 560.692 1007.73 561.911L1010.42 571.54ZM1017.71 564.18L1026.77 580.083L1035.46 575.13L1026.39 559.227L1017.71 564.18ZM1198.41 577.607L1201.18 581.767L1205.06 579.18L1202.75 575.13L1198.41 577.607ZM1180.13 585.418L1178.88 580.579L1180.13 585.418ZM1109.69 456.242H1114.69V451.242H1109.69V456.242ZM1075.93 456.242H1070.93V461.242H1075.93V456.242ZM1075.93 438.106V433.106H1070.93V438.106H1075.93ZM1109.69 438.106V443.106H1114.69V438.106H1109.69ZM1109.69 404.766L1109.09 399.801L1104.69 400.326V404.766H1109.69ZM1133.12 401.976H1138.12V396.345L1132.53 397.011L1133.12 401.976ZM1133.12 438.106H1128.12V443.106H1133.12V438.106ZM1183.9 438.106L1188.84 438.867L1189.73 433.106H1183.9V438.106ZM1181.11 456.242V461.242H1185.4L1186.05 457.002L1181.11 456.242ZM1133.12 456.242V451.242H1128.12V456.242H1133.12ZM1139.54 562.262L1136 565.797L1136.02 565.816L1136.04 565.835L1139.54 562.262ZM1176.37 566.725L1177.71 571.54L1176.37 566.725ZM1189.34 561.703L1193.68 559.227L1191.32 555.076L1187.06 557.252L1189.34 561.703ZM1195.63 573.446C1191.17 576.424 1185.61 578.829 1178.88 580.579L1181.39 590.258C1188.97 588.288 1195.6 585.485 1201.18 581.767L1195.63 573.446ZM1178.88 580.579C1172.09 582.34 1165.5 583.208 1159.07 583.208V593.208C1166.41 593.208 1173.85 592.217 1181.39 590.258L1178.88 580.579ZM1159.07 583.208C1144.12 583.208 1133.35 579.31 1126 572.199L1119.04 579.387C1128.81 588.83 1142.4 593.208 1159.07 593.208V583.208ZM1126 572.199C1118.51 564.958 1114.69 555.653 1114.69 543.848H1104.69C1104.69 558.082 1109.42 570.074 1119.04 579.387L1126 572.199ZM1114.69 543.848V456.242H1104.69V543.848H1114.69ZM1109.69 451.242H1075.93V461.242H1109.69V451.242ZM1080.93 456.242V438.106H1070.93V456.242H1080.93ZM1075.93 443.106H1109.69V433.106H1075.93V443.106ZM1114.69 438.106V404.766H1104.69V438.106H1114.69ZM1110.28 409.731L1133.71 406.941L1132.53 397.011L1109.09 399.801L1110.28 409.731ZM1128.12 401.976V438.106H1138.12V401.976H1128.12ZM1133.12 443.106H1183.9V433.106H1133.12V443.106ZM1178.96 437.346L1176.17 455.481L1186.05 457.002L1188.84 438.867L1178.96 437.346ZM1181.11 451.242H1133.12V461.242H1181.11V451.242ZM1128.12 456.242V543.568H1138.12V456.242H1128.12ZM1128.12 543.568C1128.12 552.598 1130.49 560.289 1136 565.797L1143.07 558.726C1140.03 555.678 1138.12 550.907 1138.12 543.568H1128.12ZM1136.04 565.835C1141.79 571.464 1150.61 573.678 1161.16 573.678V563.678C1151.63 563.678 1146.03 561.615 1143.04 558.688L1136.04 565.835ZM1161.16 573.678C1167.04 573.678 1172.57 572.981 1177.71 571.54L1175.02 561.911C1170.86 563.074 1166.25 563.678 1161.16 563.678V573.678ZM1177.71 571.54C1182.66 570.155 1187.3 568.363 1191.62 566.155L1187.06 557.252C1183.38 559.136 1179.37 560.692 1175.02 561.911L1177.71 571.54ZM1185 564.18L1194.06 580.083L1202.75 575.13L1193.68 559.227L1185 564.18ZM1371.28 438.106L1376 439.754L1378.32 433.106H1371.28V438.106ZM1319.66 585.977L1314.94 584.329L1314.94 584.336L1314.94 584.342L1319.66 585.977ZM1306.55 613.319L1302.34 610.622L1302.33 610.639L1302.32 610.656L1306.55 613.319ZM1286.04 633.825L1283.36 629.609L1283.33 629.626L1283.3 629.643L1286.04 633.825ZM1254.1 644.009L1249.19 644.961L1250.06 649.441L1254.6 648.983L1254.1 644.009ZM1250.47 625.315L1249.66 620.382L1244.58 621.22L1245.56 626.268L1250.47 625.315ZM1274.47 617.643L1271.93 613.332L1274.47 617.643ZM1288.28 604.391L1284.06 601.701L1284.04 601.727L1284.03 601.754L1288.28 604.391ZM1297.34 585L1302.07 586.634L1304.36 580H1297.34V585ZM1289.53 585L1284.81 586.65L1285.98 590H1289.53V585ZM1238.2 438.106V433.106H1231.15L1233.48 439.756L1238.2 438.106ZM1263.31 438.106L1268.06 436.555L1266.93 433.106H1263.31V438.106ZM1305.43 567.144L1300.68 568.696L1305.47 583.351L1310.19 568.677L1305.43 567.144ZM1347.01 438.106V433.106H1343.36L1342.25 436.573L1347.01 438.106ZM1366.56 436.459L1314.94 584.329L1324.38 587.624L1376 439.754L1366.56 436.459ZM1314.94 584.342C1311.62 593.947 1307.41 602.7 1302.34 610.622L1310.76 616.015C1316.29 607.383 1320.83 597.908 1324.39 587.611L1314.94 584.342ZM1302.32 610.656C1297.51 618.29 1291.21 624.601 1283.36 629.609L1288.73 638.041C1297.8 632.261 1305.17 624.901 1310.78 615.981L1302.32 610.656ZM1283.3 629.643C1275.78 634.578 1265.96 637.789 1253.6 639.034L1254.6 648.983C1268.1 647.624 1279.57 644.046 1288.79 638.007L1283.3 629.643ZM1259.01 643.056L1255.38 624.363L1245.56 626.268L1249.19 644.961L1259.01 643.056ZM1251.29 630.249C1261.75 628.521 1270.41 625.823 1277 621.954L1271.93 613.332C1266.8 616.345 1259.47 618.762 1249.66 620.382L1251.29 630.249ZM1277 621.954C1283.51 618.132 1288.72 613.159 1292.52 607.027L1284.03 601.754C1281.14 606.41 1277.14 610.272 1271.93 613.332L1277 621.954ZM1292.49 607.08C1296.19 601.286 1299.37 594.451 1302.07 586.634L1292.62 583.366C1290.11 590.615 1287.25 596.707 1284.06 601.701L1292.49 607.08ZM1297.34 580H1289.53V590H1297.34V580ZM1294.25 583.35L1242.92 436.457L1233.48 439.756L1284.81 586.65L1294.25 583.35ZM1238.2 443.106H1263.31V433.106H1238.2V443.106ZM1258.55 439.658L1300.68 568.696L1310.19 565.592L1268.06 436.555L1258.55 439.658ZM1310.19 568.677L1351.76 439.64L1342.25 436.573L1300.68 565.611L1310.19 568.677ZM1347.01 443.106H1371.28V433.106H1347.01V443.106Z"
    fill="#00FF57" />
  <path
    d="M849 764.5V670H930V683.5H943.5V724H930V737.5H876V764.5H849ZM876 724H916.5V683.5H876V724ZM957 764.5V670H1038V683.5H1051.5V724H1024.5V737.5H1038V751H1051.5V764.5H1011V751H997.5V737.5H984V764.5H957ZM984 724H1011V710.5H1024.5V683.5H984V724ZM1078.5 764.5V751H1105.5V683.5H1078.5V670H1159.5V683.5H1132.5V751H1159.5V764.5H1078.5ZM1173 764.5V737.5H1186.5V724H1200V710.5H1213.5V697H1227V683.5H1173V670H1267.5V697H1254V710.5H1240.5V724H1227V737.5H1213.5V751H1267.5V764.5H1173ZM1281 764.5V670H1375.5V683.5H1308V710.5H1362V724H1308V751H1375.5V764.5H1281Z"
    fill="#00FF57" />
  <path
    d="M861.345 780.53C862.195 780.53 862.965 780.605 863.655 780.755C864.345 780.905 865 781.115 865.62 781.385L864.81 783.26C864.3 783.04 863.76 782.875 863.19 782.765C862.62 782.655 862.03 782.6 861.42 782.6C860.32 782.6 859.49 782.815 858.93 783.245C858.38 783.675 858.105 784.335 858.105 785.225V788.435H863.46L863.19 790.415H858.105V803H855.585V790.415H851.82V788.435H855.585V785.285C855.585 784.305 855.835 783.46 856.335 782.75C856.845 782.04 857.535 781.495 858.405 781.115C859.275 780.725 860.255 780.53 861.345 780.53ZM870.153 803V801.065H872.613V789.14H870.153V787.205H874.533L874.998 790.94C875.608 789.64 876.348 788.635 877.218 787.925C878.088 787.215 879.238 786.86 880.668 786.86C881.108 786.86 881.498 786.895 881.838 786.965C882.188 787.025 882.543 787.105 882.903 787.205L882.168 789.455C881.838 789.365 881.538 789.3 881.268 789.26C880.998 789.21 880.688 789.185 880.338 789.185C879.128 789.185 878.088 789.615 877.218 790.475C876.348 791.335 875.653 792.635 875.133 794.375V801.065H878.343V803H870.153ZM880.473 792.545V789.11L880.728 787.205H882.903L882.543 792.545H880.473ZM894.007 786.875C895.497 786.875 896.742 787.215 897.742 787.895C898.752 788.565 899.507 789.515 900.007 790.745C900.517 791.975 900.772 793.425 900.772 795.095C900.772 796.705 900.512 798.13 899.992 799.37C899.472 800.61 898.707 801.585 897.697 802.295C896.697 802.995 895.457 803.345 893.977 803.345C892.497 803.345 891.252 803.005 890.242 802.325C889.232 801.645 888.467 800.69 887.947 799.46C887.437 798.22 887.182 796.775 887.182 795.125C887.182 793.495 887.442 792.06 887.962 790.82C888.482 789.58 889.247 788.615 890.257 787.925C891.277 787.225 892.527 786.875 894.007 786.875ZM894.007 788.93C892.647 788.93 891.617 789.435 890.917 790.445C890.227 791.445 889.882 793.005 889.882 795.125C889.882 797.205 890.222 798.75 890.902 799.76C891.592 800.77 892.617 801.275 893.977 801.275C895.337 801.275 896.357 800.77 897.037 799.76C897.727 798.75 898.072 797.195 898.072 795.095C898.072 792.995 897.732 791.445 897.052 790.445C896.372 789.435 895.357 788.93 894.007 788.93ZM916.39 786.875C916.9 786.875 917.385 786.985 917.845 787.205C918.315 787.425 918.7 787.85 919 788.48C919.3 789.11 919.45 790.03 919.45 791.24V803H917.11V791.645C917.11 790.655 917.05 789.94 916.93 789.5C916.81 789.06 916.465 788.84 915.895 788.84C915.425 788.84 914.955 788.99 914.485 789.29C914.025 789.58 913.575 790.06 913.135 790.73V803H910.78V791.645C910.78 790.655 910.72 789.94 910.6 789.5C910.48 789.06 910.135 788.84 909.565 788.84C909.075 788.84 908.6 788.99 908.14 789.29C907.69 789.58 907.245 790.06 906.805 790.73V803H904.48V787.205H906.46L906.61 789.035C907.04 788.425 907.52 787.915 908.05 787.505C908.59 787.085 909.255 786.875 910.045 786.875C910.645 786.875 911.21 787.02 911.74 787.31C912.27 787.59 912.66 788.14 912.91 788.96C913.34 788.34 913.825 787.84 914.365 787.46C914.905 787.07 915.58 786.875 916.39 786.875Z"
    fill="#00FF57" />
  <g filter="url(#filter0_d_6_2)">
    <path
      d="M951.24 780.245C952.4 780.245 953.425 780.34 954.315 780.53C955.205 780.71 956 780.95 956.7 781.25L955.395 784.34C954.845 784.13 954.28 783.98 953.7 783.89C953.12 783.79 952.545 783.74 951.975 783.74C951.035 783.74 950.36 783.91 949.95 784.25C949.55 784.59 949.35 785.155 949.35 785.945V788.075H954.54L954.015 791.36H949.35V803H944.64V791.36H941.295V788.075H944.64V785.765C944.64 784.715 944.89 783.775 945.39 782.945C945.89 782.115 946.63 781.46 947.61 780.98C948.59 780.49 949.8 780.245 951.24 780.245ZM959.238 803V799.82H961.338V790.22H959.238V787.07H964.953L965.823 790.655C966.393 789.285 967.118 788.265 967.998 787.595C968.888 786.925 969.973 786.59 971.253 786.59C971.793 786.59 972.273 786.635 972.693 786.725C973.113 786.805 973.508 786.92 973.878 787.07L972.438 790.985C972.148 790.905 971.858 790.845 971.568 790.805C971.278 790.765 970.958 790.745 970.608 790.745C969.568 790.745 968.653 791.17 967.863 792.02C967.083 792.87 966.488 793.95 966.078 795.26V799.82H969.228V803H959.238ZM970.023 793.73V789.08L970.728 787.07H973.878L972.993 793.73H970.023ZM981.187 796.415C981.297 797.285 981.522 797.99 981.862 798.53C982.212 799.06 982.657 799.45 983.197 799.7C983.737 799.94 984.342 800.06 985.012 800.06C985.742 800.06 986.447 799.94 987.127 799.7C987.807 799.46 988.462 799.14 989.092 798.74L990.997 801.32C990.247 801.96 989.337 802.485 988.267 802.895C987.207 803.305 985.997 803.51 984.637 803.51C982.817 803.51 981.292 803.15 980.062 802.43C978.832 801.7 977.907 800.7 977.287 799.43C976.667 798.16 976.357 796.7 976.357 795.05C976.357 793.48 976.657 792.055 977.257 790.775C977.857 789.485 978.732 788.46 979.882 787.7C981.042 786.93 982.457 786.545 984.127 786.545C985.647 786.545 986.962 786.87 988.072 787.52C989.192 788.17 990.057 789.105 990.667 790.325C991.287 791.545 991.597 793.01 991.597 794.72C991.597 794.99 991.587 795.28 991.567 795.59C991.557 795.9 991.537 796.175 991.507 796.415H981.187ZM984.127 789.725C983.277 789.725 982.592 790.03 982.072 790.64C981.552 791.25 981.237 792.225 981.127 793.565H986.977C986.967 792.405 986.742 791.475 986.302 790.775C985.862 790.075 985.137 789.725 984.127 789.725ZM1003.51 799.775C1004.16 799.775 1004.77 799.65 1005.34 799.4C1005.92 799.14 1006.49 798.81 1007.06 798.41L1009.18 801.41C1008.48 802.01 1007.62 802.51 1006.61 802.91C1005.61 803.31 1004.49 803.51 1003.25 803.51C1001.54 803.51 1000.07 803.16 998.845 802.46C997.615 801.75 996.67 800.77 996.01 799.52C995.35 798.26 995.02 796.8 995.02 795.14C995.02 793.48 995.355 792.005 996.025 790.715C996.705 789.415 997.665 788.395 998.905 787.655C1000.15 786.915 1001.63 786.545 1003.34 786.545C1004.55 786.545 1005.63 786.715 1006.57 787.055C1007.52 787.385 1008.39 787.88 1009.18 788.54L1007.12 791.39C1006.58 791.01 1006.01 790.715 1005.41 790.505C1004.81 790.295 1004.19 790.19 1003.54 790.19C1002.47 790.19 1001.6 790.57 1000.94 791.33C1000.29 792.08 999.97 793.35 999.97 795.14C999.97 796.31 1000.12 797.235 1000.43 797.915C1000.74 798.585 1001.16 799.065 1001.69 799.355C1002.23 799.635 1002.84 799.775 1003.51 799.775ZM1027.39 802.07C1026.77 802.47 1026.02 802.81 1025.14 803.09C1024.26 803.37 1023.27 803.51 1022.17 803.51C1020.09 803.51 1018.55 802.98 1017.54 801.92C1016.53 800.85 1016.02 799.4 1016.02 797.57V790.34H1012.68V787.07H1016.02V783.62L1020.76 783.05V787.07H1025.89L1025.43 790.34H1020.76V797.57C1020.76 798.36 1020.94 798.925 1021.3 799.265C1021.66 799.605 1022.24 799.775 1023.03 799.775C1023.59 799.775 1024.1 799.71 1024.56 799.58C1025.03 799.44 1025.45 799.265 1025.82 799.055L1027.39 802.07ZM1037.94 786.545C1039.58 786.545 1040.98 786.895 1042.13 787.595C1043.28 788.295 1044.16 789.28 1044.77 790.55C1045.38 791.81 1045.68 793.29 1045.68 794.99C1045.68 796.76 1045.37 798.285 1044.75 799.565C1044.14 800.835 1043.26 801.81 1042.11 802.49C1040.96 803.17 1039.57 803.51 1037.94 803.51C1036.32 803.51 1034.93 803.175 1033.77 802.505C1032.62 801.835 1031.74 800.865 1031.12 799.595C1030.51 798.325 1030.2 796.8 1030.2 795.02C1030.2 793.33 1030.51 791.85 1031.12 790.58C1031.74 789.31 1032.62 788.32 1033.77 787.61C1034.93 786.9 1036.32 786.545 1037.94 786.545ZM1037.94 790.04C1036.97 790.04 1036.25 790.44 1035.78 791.24C1035.32 792.03 1035.09 793.29 1035.09 795.02C1035.09 796.78 1035.32 798.055 1035.78 798.845C1036.25 799.635 1036.97 800.03 1037.94 800.03C1038.91 800.03 1039.63 799.635 1040.09 798.845C1040.56 798.055 1040.79 796.77 1040.79 794.99C1040.79 793.27 1040.56 792.015 1040.09 791.225C1039.63 790.435 1038.91 790.04 1037.94 790.04ZM1049.03 803V787.07H1053.17L1053.5 788.915C1054.21 788.115 1054.96 787.52 1055.75 787.13C1056.54 786.74 1057.44 786.545 1058.45 786.545C1059.81 786.545 1060.88 786.96 1061.66 787.79C1062.44 788.62 1062.83 789.79 1062.83 791.3V803H1058.09V792.665C1058.09 792.015 1058.04 791.5 1057.95 791.12C1057.86 790.73 1057.7 790.455 1057.47 790.295C1057.25 790.125 1056.95 790.04 1056.56 790.04C1056.23 790.04 1055.9 790.115 1055.58 790.265C1055.27 790.405 1054.97 790.61 1054.67 790.88C1054.37 791.15 1054.07 791.475 1053.77 791.855V803H1049.03ZM1072.67 799.415H1080.65L1080.2 803H1067.08V799.655L1074.98 790.64H1067.74V787.07H1080.5V790.4L1072.67 799.415Z"
      fill="#00FF57" />
  </g>
  <path
    d="M90.5 301.5V220.5H63.5V207H144.5V220.5H117.5V301.5H90.5ZM158 301.5V207H185V247.5H225.5V207H252.5V301.5H225.5V261H185V301.5H158ZM266 301.5V207H360.5V220.5H293V247.5H347V261H293V288H360.5V301.5H266Z"
    fill="#00FF57" />
  <defs>
    <filter id="filter0_d_6_2" x="931.295" y="772.245" width="159.358" height="43.265" filterUnits="userSpaceOnUse"
      color-interpolation-filters="sRGB">
      <feFlood flood-opacity="0" result="BackgroundImageFix" />
      <feColorMatrix in="SourceAlpha" type="matrix" values="0 0 0 0 0 0 0 0 0 0 0 0 0 0 0 0 0 0 127 0"
        result="hardAlpha" />
      <feOffset dy="2" />
      <feGaussianBlur stdDeviation="5" />
      <feComposite in2="hardAlpha" operator="out" />
      <feColorMatrix type="matrix" values="0 0 0 0 0 0 0 0 0 1 0 0 0 0 0.34 0 0 0 1 0" />
      <feBlend mode="normal" in2="BackgroundImageFix" result="effect1_dropShadow_6_2" />
      <feBlend mode="normal" in="SourceGraphic" in2="effect1_dropShadow_6_2" result="shape" />
    </filter>
  </defs>
</svg>